{
  "source": "C:\\Users\\Peter\\Desktop\\stuff\\MIUN\\quantitative_research\\video_compression\\videos\\UVG\\Jockey_1920x1080_120fps_420_8bit_YUV.y4m",
  "output": "C:\\Users\\Peter\\Desktop\\stuff\\MIUN\\quantitative_research\\video_compression\\compressed_videos\\UVG\\vp9\\2.5\\Jockey_1920x1080_120fps_420_8bit_YUV_vp9.webm",
  "codec": "vp9",
  "ok": "[yuv4mpegpipe @ 00000236587652c0] Stream #0: not enough frames to estimate rate; consider increasing probesize\nInput #0, yuv4mpegpipe, from 'C:\\Users\\Peter\\Desktop\\stuff\\MIUN\\quantitative_research\\video_compression\\videos\\UVG\\Jockey_1920x1080_120fps_420_8bit_YUV.y4m':\n  Duration: 00:00:05.00, start: 0.000000, bitrate: 2985989 kb/s\n  Stream #0:0: Video: rawvideo (I420 / 0x30323449), yuv420p(progressive), 1920x1080, 120 fps, 120 tbr, 120 tbn\n[out#0/webm @ 0000023658769b80] Codec AVOption b:a (set bitrate (in bits/s)) has not been used for any stream. The most likely reason is either wrong type (e.g. a video option with no video streams) or that it is a private option of some decoder which was not actually used for any stream.\nStream mapping:\n  Stream #0:0 -> #0:0 (rawvideo (native) -> vp9 (libvpx-vp9))\nPress [q] to stop, [?] for help\n[libvpx-vp9 @ 000002365876cec0] v1.15.2-100-g40561f514\nOutput #0, webm, to 'C:\\Users\\Peter\\Desktop\\stuff\\MIUN\\quantitative_research\\video_compression\\compressed_videos\\UVG\\vp9\\2.5\\Jockey_1920x1080_120fps_420_8bit_YUV_vp9.webm':\n  Metadata:\n    encoder         : Lavf62.3.100\n  Stream #0:0: Video: vp9, yuv420p(tv, progressive), 1920x1080, q=2-31, 2500 kb/s, 120 fps, 1k tbn\n    Metadata:\n      encoder         : Lavc62.11.100 libvpx-vp9\n    Side data:\n      cpb: bitrate max/min/avg: 0/0/0 buffer size: 2500000 vbv_delay: N/A\nframe=    4 fps=0.0 q=61.0 size=       0KiB time=00:00:00.03 bitrate= 115.4kbits/s speed=0.0649x elapsed=0:00:00.51    \nframe=   13 fps= 12 q=49.0 size=       0KiB time=00:00:00.10 bitrate=  35.5kbits/s speed=0.103x elapsed=0:00:01.04    \nframe=   20 fps= 13 q=47.0 size=       0KiB time=00:00:00.16 bitrate=  23.1kbits/s speed=0.106x elapsed=0:00:01.57    \nframe=   28 fps= 13 q=48.0 size=       0KiB time=00:00:00.23 bitrate=  16.5kbits/s speed=0.11x elapsed=0:00:02.12    \nframe=   35 fps= 13 q=48.0 size=       0KiB time=00:00:00.29 bitrate=  13.2kbits/s speed=0.109x elapsed=0:00:02.68    \nframe=   42 fps= 13 q=49.0 size=       0KiB time=00:00:00.35 bitrate=  11.0kbits/s speed=0.109x elapsed=0:00:03.22    \nframe=   49 fps= 13 q=49.0 size=       0KiB time=00:00:00.40 bitrate=   9.4kbits/s speed=0.109x elapsed=0:00:03.75    \nframe=   55 fps= 13 q=49.0 size=       0KiB time=00:00:00.45 bitrate=   8.4kbits/s speed=0.107x elapsed=0:00:04.28    \nframe=   61 fps= 13 q=50.0 size=       0KiB time=00:00:00.50 bitrate=   7.6kbits/s speed=0.106x elapsed=0:00:04.78    \nframe=   68 fps= 13 q=50.0 size=       0KiB time=00:00:00.56 bitrate=   6.8kbits/s speed=0.107x elapsed=0:00:05.30    \nframe=   75 fps= 13 q=49.0 size=       0KiB time=00:00:00.62 bitrate=   6.2kbits/s speed=0.107x elapsed=0:00:05.82    \nframe=   81 fps= 13 q=38.0 size=       0KiB time=00:00:00.67 bitrate=   5.7kbits/s speed=0.107x elapsed=0:00:06.33    \nframe=   88 fps= 13 q=38.0 size=       0KiB time=00:00:00.73 bitrate=   5.2kbits/s speed=0.107x elapsed=0:00:06.86    \nframe=   94 fps= 13 q=51.0 size=       0KiB time=00:00:00.78 bitrate=   4.9kbits/s speed=0.106x elapsed=0:00:07.39    \nframe=  101 fps= 13 q=51.0 size=       0KiB time=00:00:00.84 bitrate=   4.6kbits/s speed=0.106x elapsed=0:00:07.90    \nframe=  108 fps= 13 q=52.0 size=       0KiB time=00:00:00.90 bitrate=   4.3kbits/s speed=0.107x elapsed=0:00:08.42    \nframe=  115 fps= 13 q=52.0 size=       0KiB time=00:00:00.95 bitrate=   4.0kbits/s speed=0.107x elapsed=0:00:08.94    \nframe=  122 fps= 13 q=52.0 size=       0KiB time=00:00:01.01 bitrate=   3.8kbits/s speed=0.107x elapsed=0:00:09.48    \nframe=  128 fps= 13 q=53.0 size=       0KiB time=00:00:01.06 bitrate=   3.6kbits/s speed=0.107x elapsed=0:00:10.01    \nframe=  135 fps= 13 q=52.0 size=     256KiB time=00:00:01.12 bitrate=1864.1kbits/s speed=0.107x elapsed=0:00:10.52    \nframe=  142 fps= 13 q=52.0 size=     256KiB time=00:00:01.18 bitrate=1772.2kbits/s speed=0.107x elapsed=0:00:11.05    \nframe=  147 fps= 13 q=53.0 size=     256KiB time=00:00:01.22 bitrate=1712.0kbits/s speed=0.106x elapsed=0:00:11.56    \nframe=  154 fps= 13 q=53.0 size=     256KiB time=00:00:01.28 bitrate=1634.1kbits/s speed=0.106x elapsed=0:00:12.09    \nframe=  160 fps= 13 q=54.0 size=     256KiB time=00:00:01.33 bitrate=1572.9kbits/s speed=0.106x elapsed=0:00:12.62    \nframe=  167 fps= 13 q=54.0 size=     256KiB time=00:00:01.39 bitrate=1506.9kbits/s speed=0.106x elapsed=0:00:13.15    \nframe=  172 fps= 13 q=53.0 size=     256KiB time=00:00:01.43 bitrate=1463.1kbits/s speed=0.105x elapsed=0:00:13.66    \nframe=  179 fps= 13 q=52.0 size=     256KiB time=00:00:01.49 bitrate=1405.9kbits/s speed=0.105x elapsed=0:00:14.19    \nframe=  185 fps= 13 q=52.0 size=     256KiB time=00:00:01.54 bitrate=1360.3kbits/s speed=0.105x elapsed=0:00:14.70    \nframe=  193 fps= 13 q=52.0 size=     256KiB time=00:00:01.60 bitrate=1303.9kbits/s speed=0.106x elapsed=0:00:15.23    \nframe=  200 fps= 13 q=53.0 size=     256KiB time=00:00:01.66 bitrate=1258.3kbits/s speed=0.106x elapsed=0:00:15.73    \nframe=  206 fps= 13 q=53.0 size=     256KiB time=00:00:01.71 bitrate=1221.6kbits/s speed=0.106x elapsed=0:00:16.26    \nframe=  213 fps= 13 q=54.0 size=     256KiB time=00:00:01.77 bitrate=1181.5kbits/s speed=0.106x elapsed=0:00:16.78    \nframe=  220 fps= 13 q=54.0 size=     256KiB time=00:00:01.83 bitrate=1143.9kbits/s speed=0.106x elapsed=0:00:17.31    \nframe=  226 fps= 13 q=54.0 size=     256KiB time=00:00:01.88 bitrate=1113.5kbits/s speed=0.106x elapsed=0:00:17.83    \nframe=  233 fps= 13 q=55.0 size=     256KiB time=00:00:01.94 bitrate=1080.1kbits/s speed=0.106x elapsed=0:00:18.35    \nframe=  239 fps= 13 q=54.0 size=     256KiB time=00:00:01.99 bitrate=1053.0kbits/s speed=0.105x elapsed=0:00:18.88    \nframe=  246 fps= 13 q=55.0 size=     256KiB time=00:00:02.05 bitrate=1023.0kbits/s speed=0.106x elapsed=0:00:19.41    \nframe=  252 fps= 13 q=56.0 size=     256KiB time=00:00:02.10 bitrate= 998.6kbits/s speed=0.105x elapsed=0:00:19.95    \nframe=  258 fps= 13 q=55.0 size=     512KiB time=00:00:02.15 bitrate=1950.8kbits/s speed=0.105x elapsed=0:00:20.46    \nframe=  265 fps= 13 q=55.0 size=     512KiB time=00:00:02.20 bitrate=1899.3kbits/s speed=0.105x elapsed=0:00:21.01    \nframe=  271 fps= 13 q=41.0 size=     512KiB time=00:00:02.25 bitrate=1857.3kbits/s speed=0.105x elapsed=0:00:21.57    \nframe=  277 fps= 13 q=55.0 size=     512KiB time=00:00:02.30 bitrate=1817.0kbits/s speed=0.104x elapsed=0:00:22.09    \nframe=  283 fps= 13 q=55.0 size=     512KiB time=00:00:02.35 bitrate=1778.5kbits/s speed=0.104x elapsed=0:00:22.61    \nframe=  289 fps= 12 q=59.0 size=     512KiB time=00:00:02.40 bitrate=1741.6kbits/s speed=0.104x elapsed=0:00:23.15    \nframe=  295 fps= 12 q=60.0 size=     512KiB time=00:00:02.45 bitrate=1706.2kbits/s speed=0.104x elapsed=0:00:23.67    \nframe=  301 fps= 12 q=61.0 size=     512KiB time=00:00:02.50 bitrate=1672.1kbits/s speed=0.104x elapsed=0:00:24.20    \nframe=  307 fps= 12 q=62.0 size=     512KiB time=00:00:02.55 bitrate=1639.5kbits/s speed=0.103x elapsed=0:00:24.72    \nframe=  313 fps= 12 q=49.0 size=     512KiB time=00:00:02.60 bitrate=1608.0kbits/s speed=0.103x elapsed=0:00:25.24    \nframe=  319 fps= 12 q=61.0 size=     512KiB time=00:00:02.65 bitrate=1577.8kbits/s speed=0.103x elapsed=0:00:25.76    \nframe=  325 fps= 12 q=61.0 size=     512KiB time=00:00:02.70 bitrate=1548.7kbits/s speed=0.103x elapsed=0:00:26.28    \nframe=  332 fps= 12 q=59.0 size=     512KiB time=00:00:02.76 bitrate=1516.0kbits/s speed=0.103x elapsed=0:00:26.79    \nframe=  338 fps= 12 q=57.0 size=     512KiB time=00:00:02.81 bitrate=1489.1kbits/s speed=0.103x elapsed=0:00:27.31    \nframe=  344 fps= 12 q=59.0 size=     512KiB time=00:00:02.86 bitrate=1463.1kbits/s speed=0.103x elapsed=0:00:27.83    \nframe=  352 fps= 12 q=59.0 size=     512KiB time=00:00:02.93 bitrate=1429.9kbits/s speed=0.104x elapsed=0:00:28.33    \nframe=  358 fps= 12 q=58.0 size=     512KiB time=00:00:02.98 bitrate=1405.9kbits/s speed=0.103x elapsed=0:00:28.87    \nframe=  366 fps= 12 q=55.0 size=     512KiB time=00:00:03.05 bitrate=1375.2kbits/s speed=0.104x elapsed=0:00:29.39    \nframe=  374 fps= 12 q=53.0 size=     512KiB time=00:00:03.11 bitrate=1345.8kbits/s speed=0.104x elapsed=0:00:29.92    \nframe=  381 fps= 13 q=59.0 size=     512KiB time=00:00:03.17 bitrate=1321.0kbits/s speed=0.104x elapsed=0:00:30.45    \nframe=  388 fps= 13 q=52.0 size=     768KiB time=00:00:03.23 bitrate=1945.8kbits/s speed=0.104x elapsed=0:00:30.96    \nframe=  396 fps= 13 q=51.0 size=     768KiB time=00:00:03.30 bitrate=1906.5kbits/s speed=0.105x elapsed=0:00:31.49    \nframe=  403 fps= 13 q=50.0 size=     768KiB time=00:00:03.35 bitrate=1873.4kbits/s speed=0.105x elapsed=0:00:32.00    \nframe=  411 fps= 13 q=47.0 size=     768KiB time=00:00:03.42 bitrate=1836.9kbits/s speed=0.105x elapsed=0:00:32.54    \nframe=  418 fps= 13 q=45.0 size=     768KiB time=00:00:03.48 bitrate=1806.2kbits/s speed=0.105x elapsed=0:00:33.05    \nframe=  426 fps= 13 q=45.0 size=     768KiB time=00:00:03.55 bitrate=1772.2kbits/s speed=0.106x elapsed=0:00:33.57    \nframe=  433 fps= 13 q=46.0 size=     768KiB time=00:00:03.60 bitrate=1743.6kbits/s speed=0.106x elapsed=0:00:34.12    \nframe=  440 fps= 13 q=47.0 size=     768KiB time=00:00:03.66 bitrate=1715.9kbits/s speed=0.106x elapsed=0:00:34.65    \nframe=  447 fps= 13 q=49.0 size=     768KiB time=00:00:03.72 bitrate=1689.0kbits/s speed=0.106x elapsed=0:00:35.17    \nframe=  454 fps= 13 q=49.0 size=     768KiB time=00:00:03.78 bitrate=1662.9kbits/s speed=0.106x elapsed=0:00:35.69    \nframe=  462 fps= 13 q=35.0 size=     768KiB time=00:00:03.85 bitrate=1634.1kbits/s speed=0.106x elapsed=0:00:36.21    \nframe=  470 fps= 13 q=45.0 size=     768KiB time=00:00:03.91 bitrate=1606.3kbits/s speed=0.107x elapsed=0:00:36.74    \nframe=  477 fps= 13 q=43.0 size=     768KiB time=00:00:03.97 bitrate=1582.8kbits/s speed=0.107x elapsed=0:00:37.26    \nframe=  484 fps= 13 q=42.0 size=     768KiB time=00:00:04.03 bitrate=1559.9kbits/s speed=0.107x elapsed=0:00:37.77    \nframe=  491 fps= 13 q=43.0 size=     768KiB time=00:00:04.09 bitrate=1537.6kbits/s speed=0.107x elapsed=0:00:38.29    \nframe=  498 fps= 13 q=45.0 size=     768KiB time=00:00:04.15 bitrate=1516.0kbits/s speed=0.107x elapsed=0:00:38.81    \nframe=  505 fps= 13 q=47.0 size=     768KiB time=00:00:04.20 bitrate=1495.0kbits/s speed=0.107x elapsed=0:00:39.33    \nframe=  512 fps= 13 q=47.0 size=     768KiB time=00:00:04.26 bitrate=1474.6kbits/s speed=0.107x elapsed=0:00:39.85    \nframe=  519 fps= 13 q=48.0 size=    1280KiB time=00:00:04.32 bitrate=2424.5kbits/s speed=0.107x elapsed=0:00:40.37    \nframe=  526 fps= 13 q=47.0 size=    1280KiB time=00:00:04.38 bitrate=2392.2kbits/s speed=0.107x elapsed=0:00:40.89    \nframe=  534 fps= 13 q=34.0 size=    1280KiB time=00:00:04.45 bitrate=2356.4kbits/s speed=0.107x elapsed=0:00:41.42    \nframe=  540 fps= 13 q=46.0 size=    1280KiB time=00:00:04.50 bitrate=2330.2kbits/s speed=0.107x elapsed=0:00:41.92    \nframe=  547 fps= 13 q=45.0 size=    1280KiB time=00:00:04.55 bitrate=2300.3kbits/s speed=0.107x elapsed=0:00:42.44    \nframe=  554 fps= 13 q=47.0 size=    1280KiB time=00:00:04.60 bitrate=2275.4kbits/s speed=0.107x elapsed=0:00:42.99    \nframe=  557 fps= 13 q=49.0 size=    1280KiB time=00:00:04.64 bitrate=2259.1kbits/s speed=0.107x elapsed=0:00:43.56    \nframe=  562 fps= 13 q=49.0 size=    1280KiB time=00:00:04.68 bitrate=2239.0kbits/s speed=0.106x elapsed=0:00:44.11    \nframe=  566 fps= 13 q=49.0 size=    1280KiB time=00:00:04.71 bitrate=2223.1kbits/s speed=0.106x elapsed=0:00:44.69    \nframe=  569 fps= 13 q=49.0 size=    1280KiB time=00:00:04.74 bitrate=2211.4kbits/s speed=0.105x elapsed=0:00:45.23    \nframe=  575 fps= 13 q=49.0 size=    1280KiB time=00:00:04.79 bitrate=2188.3kbits/s speed=0.105x elapsed=0:00:45.76    \nframe=  576 fps= 12 q=49.0 size=    1280KiB time=00:00:04.80 bitrate=2184.5kbits/s speed=0.104x elapsed=0:00:46.30    \nframe=  576 fps= 12 q=49.0 size=    1280KiB time=00:00:04.80 bitrate=2184.5kbits/s speed=0.102x elapsed=0:00:46.84    \nframe=  576 fps= 12 q=49.0 size=    1280KiB time=00:00:04.80 bitrate=2184.5kbits/s speed=0.101x elapsed=0:00:47.43    \nframe=  576 fps= 12 q=49.0 size=    1280KiB time=00:00:04.80 bitrate=2184.5kbits/s speed= 0.1x elapsed=0:00:47.98    \nframe=  576 fps= 12 q=49.0 size=    1280KiB time=00:00:04.80 bitrate=2184.5kbits/s speed=0.099x elapsed=0:00:48.49    \n[out#0/webm @ 0000023658769b80] video:1524KiB audio:0KiB subtitle:0KiB other streams:0KiB global headers:0KiB muxing overhead: 0.309966%\nframe=  600 fps= 12 q=53.0 Lsize=    1529KiB time=00:00:05.00 bitrate=2504.5kbits/s speed=0.103x elapsed=0:00:48.63    \n",
  "seconds": 48.77140927314758,
  "probe_out": {}
}